# Blender v2.83.1 OBJ File: 'farlands_chain.blend'
# www.blender.org
o Plane
v -0.247487 0.500000 0.247487
v -0.247487 -0.500000 0.247487
v 0.247487 0.500000 -0.247487
v 0.247487 -0.500000 -0.247487
vt 0.937500 -0.000000
vt 0.937500 1.000000
vt 0.062500 1.000000
vt 0.062500 0.000000
vn 0.7071 -0.0000 0.7071
s off
f 1/1/1 2/2/1 4/3/1 3/4/1
o plane2_Plane.001
v -0.247487 0.500000 -0.247487
v -0.247487 -0.500000 -0.247487
v 0.247487 0.500000 0.247487
v 0.247487 -0.500000 0.247487
vt 0.937500 -0.000000
vt 0.937500 1.000000
vt 0.062500 1.000000
vt 0.062500 -0.000000
vn -0.7071 0.0000 0.7071
s off
f 5/5/2 6/6/2 8/7/2 7/8/2
