# Blender v2.78 (sub 0) OBJ File: ''
# www.blender.org
mtllib 8_way.mtl
o WOOD_mesh__WOOD_mesh_.005
v -0.055556 0.000000 -0.388889
v -0.166667 0.000000 -0.388889
v -0.166667 0.000000 0.388889
v -0.055556 0.000000 0.388889
v -0.388889 0.000000 -0.055556
v -0.388889 0.000000 -0.166667
v -0.166667 0.000000 -0.166667
v -0.166667 0.000000 -0.055556
v -0.388889 0.000000 0.166667
v -0.388889 0.000000 0.055556
v -0.166667 0.000000 0.055556
v -0.166667 0.000000 0.166667
v 0.055556 0.000000 0.166667
v 0.055556 0.000000 0.055556
v -0.055556 0.000000 0.055556
v -0.055556 0.000000 0.166667
v 0.055556 0.000000 -0.055556
v 0.055556 0.000000 -0.166667
v -0.055556 0.000000 -0.166667
v -0.055556 0.000000 -0.055556
v 0.055556 0.000000 0.388889
v 0.166667 0.000000 0.388889
v 0.166667 0.000000 -0.388889
v 0.055556 0.000000 -0.388889
v 0.166667 0.000000 -0.055556
v 0.166667 0.000000 -0.166667
v 0.388889 0.000000 -0.166667
v 0.388889 0.000000 -0.055556
v 0.166667 0.000000 0.166667
v 0.166667 0.000000 0.055556
v 0.388889 0.000000 0.055556
v 0.388889 0.000000 0.166667
v -0.095314 0.000000 -0.723853
v -0.016746 0.000000 -0.645286
v -0.645286 0.000000 -0.016746
v -0.723853 0.000000 -0.095314
v -0.645185 0.000000 0.016645
v -0.723752 0.000000 0.095212
v -0.095212 0.000000 0.723752
v -0.016645 0.000000 0.645185
v 0.095314 0.000000 -0.723853
v 0.016746 0.000000 -0.645286
v 0.645286 0.000000 -0.016746
v 0.723853 0.000000 -0.095314
v 0.645185 0.000000 0.016645
v 0.723752 0.000000 0.095212
v 0.095212 0.000000 0.723752
v 0.016645 0.000000 0.645185
vn 0.0000 1.0000 0.0000
vn 0.0000 -1.0000 0.0000
usemtl None
s off
f 1//1 2//1 3//1 4//1
f 5//2 6//2 7//2 8//2
f 9//2 10//2 11//2 12//2
f 13//1 14//1 15//1 16//1
f 17//1 18//1 19//1 20//1
f 21//1 22//1 23//1 24//1
f 25//2 26//2 27//2 28//2
f 29//2 30//2 31//2 32//2
f 33//2 34//2 35//2 36//2
f 37//1 38//1 39//1 40//1
f 41//1 42//1 43//1 44//1
f 45//2 46//2 47//2 48//2
o RAIL_mesh__RAIL_mesh_.005
v -0.208742 0.000056 -0.680147
v -0.287310 0.000056 -0.601580
v -0.078567 0.000056 -0.392837
v 0.000000 0.000056 -0.471405
v -0.222222 0.000056 -0.444445
v -0.333333 0.000056 -0.444445
v -0.333333 0.000056 -0.333333
v -0.222222 0.000056 -0.333333
v -0.444445 0.000056 -0.333333
v -0.444445 0.000056 -0.222222
v -0.333333 0.000056 -0.222222
v -0.333333 0.000056 -0.333333
v -0.078567 0.000056 -0.392837
v -0.138071 0.000056 -0.333333
v 0.138071 0.000056 -0.333333
v 0.078567 0.000056 -0.392837
v -0.333333 0.000056 -0.222222
v -0.333333 0.000056 -0.138071
v -0.138071 0.000056 -0.333333
v -0.222222 0.000056 -0.333333
v 0.208742 0.000056 -0.680147
v 0.287310 0.000056 -0.601580
v 0.078567 0.000056 -0.392837
v 0.000000 0.000056 -0.471405
v 0.000000 0.000056 -0.471405
v -0.078567 0.000056 -0.392837
v 0.078567 0.000056 -0.392837
v -0.333333 0.000056 -0.333333
v -0.333333 0.000056 -0.222222
v -0.222222 0.000056 -0.333333
v -0.138071 0.000056 -0.333333
v -0.092048 0.000056 -0.222222
v 0.092048 0.000056 -0.222222
v 0.138071 0.000056 -0.333333
v -0.333333 0.000056 -0.138071
v -0.222222 0.000056 -0.092048
v -0.092048 0.000056 -0.222222
v -0.138071 0.000056 -0.333333
v -0.680147 0.000056 0.208742
v -0.601580 0.000056 0.287310
v -0.392837 0.000056 0.078567
v -0.471405 0.000056 0.000000
v -0.444445 0.000056 0.222222
v -0.444445 0.000056 0.333333
v -0.333333 0.000056 0.333333
v -0.333333 0.000056 0.222222
v -0.333333 0.000056 0.444445
v -0.222222 0.000056 0.444445
v -0.222222 0.000056 0.333333
v -0.333333 0.000056 0.333333
v -0.392837 0.000056 0.078567
v -0.333333 0.000056 0.138071
v -0.333333 0.000056 -0.138071
v -0.392837 0.000056 -0.078567
v -0.222222 0.000056 0.333333
v -0.138071 0.000056 0.333333
v -0.333333 0.000056 0.138071
v -0.333333 0.000056 0.222222
v -0.680147 0.000056 -0.208742
v -0.601580 0.000056 -0.287310
v -0.392837 0.000056 -0.078567
v -0.471405 0.000056 -0.000000
v -0.471405 0.000056 -0.000000
v -0.392837 0.000056 0.078567
v -0.392837 0.000056 -0.078567
v -0.333333 0.000056 0.333333
v -0.222222 0.000056 0.333333
v -0.333333 0.000056 0.222222
v -0.333333 0.000056 0.138071
v -0.222222 0.000056 0.092048
v -0.222222 0.000056 -0.092048
v -0.333333 0.000056 -0.138071
v -0.138071 0.000056 0.333333
v -0.092048 0.000056 0.222222
v -0.222222 0.000056 0.092048
v -0.333333 0.000056 0.138071
v 0.208742 0.000056 0.680147
v 0.287310 0.000056 0.601580
v 0.078567 0.000056 0.392837
v -0.000000 0.000056 0.471405
v 0.222222 0.000056 0.444445
v 0.333333 0.000056 0.444445
v 0.333333 0.000056 0.333333
v 0.222222 0.000056 0.333333
v 0.444445 0.000056 0.333333
v 0.444445 0.000056 0.222222
v 0.333333 0.000056 0.222222
v 0.333333 0.000056 0.333333
v 0.078567 0.000056 0.392837
v 0.138071 0.000056 0.333333
v -0.138071 0.000056 0.333333
v -0.078567 0.000056 0.392837
v 0.333333 0.000056 0.222222
v 0.333333 0.000056 0.138071
v 0.138071 0.000056 0.333333
v 0.222222 0.000056 0.333333
v -0.208742 0.000056 0.680147
v -0.287310 0.000056 0.601580
v -0.078567 0.000056 0.392837
v -0.000000 0.000056 0.471405
v -0.000000 0.000056 0.471405
v 0.078567 0.000056 0.392837
v -0.078567 0.000056 0.392837
v 0.333333 0.000056 0.333333
v 0.333333 0.000056 0.222222
v 0.222222 0.000056 0.333333
v 0.138071 0.000056 0.333333
v 0.092048 0.000056 0.222222
v -0.092048 0.000056 0.222222
v -0.138071 0.000056 0.333333
v 0.333333 0.000056 0.138071
v 0.222222 0.000056 0.092048
v 0.092048 0.000056 0.222222
v 0.138071 0.000056 0.333333
v 0.680147 0.000056 -0.208742
v 0.601580 0.000056 -0.287310
v 0.392837 0.000056 -0.078567
v 0.471405 0.000056 -0.000000
v 0.444445 0.000056 -0.222222
v 0.444445 0.000056 -0.333333
v 0.333333 0.000056 -0.333333
v 0.333333 0.000056 -0.222222
v 0.333333 0.000056 -0.444445
v 0.222222 0.000056 -0.444445
v 0.222222 0.000056 -0.333333
v 0.333333 0.000056 -0.333333
v 0.392837 0.000056 -0.078567
v 0.333333 0.000056 -0.138071
v 0.333333 0.000056 0.138071
v 0.392837 0.000056 0.078567
v 0.222222 0.000056 -0.333333
v 0.138071 0.000056 -0.333333
v 0.333333 0.000056 -0.138071
v 0.333333 0.000056 -0.222222
v 0.680147 0.000056 0.208742
v 0.601580 0.000056 0.287310
v 0.392837 0.000056 0.078567
v 0.471405 0.000056 -0.000000
v 0.471405 0.000056 -0.000000
v 0.392837 0.000056 -0.078567
v 0.392837 0.000056 0.078567
v 0.333333 0.000056 -0.333333
v 0.222222 0.000056 -0.333333
v 0.333333 0.000056 -0.222222
v 0.333333 0.000056 -0.138071
v 0.222222 0.000056 -0.092048
v 0.222222 0.000056 0.092048
v 0.333333 0.000056 0.138071
v 0.138071 0.000056 -0.333333
v 0.092048 0.000056 -0.222222
v 0.222222 0.000056 -0.092048
v 0.333333 0.000056 -0.138071
vn 0.0000 1.0000 0.0000
vn 0.0000 -1.0000 0.0000
usemtl None
s off
f 49//3 50//3 51//3 52//3
f 53//3 54//3 55//3 56//3
f 57//3 58//3 59//3 60//3
f 61//3 62//3 63//3 64//3
f 65//3 66//3 67//3 68//3
f 69//4 70//4 71//4 72//4
f 73//3 74//3 75//3
f 76//3 77//3 78//3
f 79//3 80//3 81//3 82//3
f 83//3 84//3 85//3 86//3
f 87//3 88//3 89//3 90//3
f 91//3 92//3 93//3 94//3
f 95//3 96//3 97//3 98//3
f 99//3 100//3 101//3 102//3
f 103//3 104//3 105//3 106//3
f 107//4 108//4 109//4 110//4
f 111//3 112//3 113//3
f 114//3 115//3 116//3
f 117//3 118//3 119//3 120//3
f 121//3 122//3 123//3 124//3
f 125//3 126//3 127//3 128//3
f 129//3 130//3 131//3 132//3
f 133//3 134//3 135//3 136//3
f 137//3 138//3 139//3 140//3
f 141//3 142//3 143//3 144//3
f 145//4 146//4 147//4 148//4
f 149//3 150//3 151//3
f 152//3 153//3 154//3
f 155//3 156//3 157//3 158//3
f 159//3 160//3 161//3 162//3
f 163//3 164//3 165//3 166//3
f 167//3 168//3 169//3 170//3
f 171//3 172//3 173//3 174//3
f 175//3 176//3 177//3 178//3
f 179//3 180//3 181//3 182//3
f 183//4 184//4 185//4 186//4
f 187//3 188//3 189//3
f 190//3 191//3 192//3
f 193//3 194//3 195//3 196//3
f 197//3 198//3 199//3 200//3
