# Blender v2.83.1 OBJ File: ''
# www.blender.org
o WOOD_mesh__WOOD_mesh_.001
v -0.062500 -0.490000 -0.437500
v -0.187500 -0.490000 -0.437500
v -0.187500 -0.490000 0.437500
v -0.062500 -0.490000 0.437500
v -0.437500 -0.490000 -0.062500
v -0.437500 -0.490000 -0.187500
v -0.187500 -0.490000 -0.187500
v -0.187500 -0.490000 -0.062500
v -0.437500 -0.490000 0.187500
v -0.437500 -0.490000 0.062500
v -0.187500 -0.490000 0.062500
v -0.187500 -0.490000 0.187500
v 0.062500 -0.490000 0.187500
v 0.062500 -0.490000 0.062500
v -0.062500 -0.490000 0.062500
v -0.062500 -0.490000 0.187500
v 0.062500 -0.490000 -0.062500
v 0.062500 -0.490000 -0.187500
v -0.062500 -0.490000 -0.187500
v -0.062500 -0.490000 -0.062500
v 0.062500 -0.490000 0.437500
v 0.187500 -0.490000 0.437500
v 0.187500 -0.490000 -0.437500
v 0.062500 -0.490000 -0.437500
v 0.187500 -0.490000 -0.062500
v 0.187500 -0.490000 -0.187500
v 0.437500 -0.490000 -0.187500
v 0.437500 -0.490000 -0.062500
v 0.187500 -0.490000 0.187500
v 0.187500 -0.490000 0.062500
v 0.437500 -0.490000 0.062500
v 0.437500 -0.490000 0.187500
vt 0.125000 0.625000
vt 0.125000 0.500000
vt 0.937500 0.500000
vt 0.937500 0.625000
vt 0.125000 0.375000
vt 0.375000 0.375000
vt 0.375000 0.250000
vt 0.125000 0.250000
vt 0.375000 0.125000
vt 0.125000 0.125000
vt 0.125000 0.250000
vt 0.375000 0.250000
vt 0.500000 0.500000
vt 0.375000 0.500000
vt 0.375000 0.375000
vt 0.500000 0.375000
vt 0.500000 0.375000
vt 0.625000 0.375000
vt 0.625000 0.500000
vt 0.500000 0.500000
vt 0.125000 0.125000
vt 0.125000 -0.000000
vt 1.000000 0.000000
vt 1.000000 0.125000
vt 0.125000 0.500000
vt 0.375000 0.500000
vt 0.375000 0.375000
vt 0.125000 0.375000
vt 0.375000 0.375000
vt 0.625000 0.375000
vt 0.625000 0.250000
vt 0.375000 0.250000
vn 0.0000 1.0000 0.0000
g WOOD_mesh__WOOD_mesh_.001_WOOD_mesh__WOOD_mesh_.001_None
s 1
f 1/1/1 2/2/1 3/3/1 4/4/1
f 5/5/1 8/6/1 7/7/1 6/8/1
f 9/9/1 12/10/1 11/11/1 10/12/1
f 13/13/1 14/14/1 15/15/1 16/16/1
f 17/17/1 18/18/1 19/19/1 20/20/1
f 21/21/1 22/22/1 23/23/1 24/24/1
f 25/25/1 28/26/1 27/27/1 26/28/1
f 29/29/1 32/30/1 31/31/1 30/32/1
o RAIL_mesh__RAIL_mesh_.001
v -0.500000 -0.479944 -0.249999
v -0.500000 -0.479944 -0.374999
v 0.500000 -0.479944 -0.374999
v 0.500000 -0.479944 -0.249999
v -0.249999 -0.479944 -0.374999
v -0.249999 -0.479944 -0.500000
v -0.374999 -0.479944 -0.500000
v -0.374999 -0.479944 -0.374999
v -0.249999 -0.479944 0.374999
v -0.249999 -0.479944 0.500000
v -0.374999 -0.479944 0.500000
v -0.374999 -0.479944 0.374999
v -0.249999 -0.479944 0.249999
v -0.374999 -0.479944 0.249999
v -0.374999 -0.479944 -0.249999
v -0.249999 -0.479944 -0.249999
v 0.374999 -0.479944 -0.374999
v 0.374999 -0.479944 -0.500000
v 0.249999 -0.479944 -0.500000
v 0.249999 -0.479944 -0.374999
v 0.374999 -0.479944 0.374999
v 0.374999 -0.479944 0.500000
v 0.249999 -0.479944 0.500000
v 0.249999 -0.479944 0.374999
v 0.249999 -0.479944 -0.249999
v 0.374999 -0.479944 -0.249999
v 0.374999 -0.479944 0.249999
v 0.249999 -0.479944 0.249999
v 0.500000 -0.479944 0.249999
v 0.500000 -0.479944 0.374999
v -0.500000 -0.479944 0.374999
v -0.500000 -0.479944 0.249999
vt 0.875000 1.000000
vt 0.875000 -0.000000
vt 1.000000 -0.000000
vt 1.000000 1.000000
vt 0.375000 0.125000
vt 0.375000 0.250000
vt 0.250000 0.250000
vt 0.250000 0.125000
vt 0.375000 0.375000
vt 0.250000 0.375000
vt 0.250000 0.250000
vt 0.375000 0.250000
vt 0.250000 0.500000
vt 0.250000 1.000000
vt 0.125000 1.000000
vt 0.125000 0.500000
vt 0.875000 0.125000
vt 0.875000 0.250000
vt 0.750000 0.250000
vt 0.750000 0.125000
vt 0.875000 0.125000
vt 0.750000 0.125000
vt 0.750000 -0.000000
vt 0.875000 -0.000000
vt 0.750000 1.000000
vt 0.750000 0.500000
vt 0.875000 0.500000
vt 0.875000 1.000000
vt 0.125000 -0.000000
vt 0.125000 1.000000
vt -0.000000 1.000000
vt -0.000000 0.000000
vn 0.0000 1.0000 0.0000
g RAIL_mesh__RAIL_mesh_.001_RAIL_mesh__RAIL_mesh_.001_None
s 1
f 33/33/2 36/34/2 35/35/2 34/36/2
f 37/37/2 38/38/2 39/39/2 40/40/2
f 41/41/2 44/42/2 43/43/2 42/44/2
f 45/45/2 48/46/2 47/47/2 46/48/2
f 49/49/2 50/50/2 51/51/2 52/52/2
f 53/53/2 56/54/2 55/55/2 54/56/2
f 57/57/2 60/58/2 59/59/2 58/60/2
f 61/61/2 64/62/2 63/63/2 62/64/2
