# Blender v2.83.1 OBJ File: 'farlands_switch_right.blend'
# www.blender.org
o WOOD_mesh__WOOD_mesh_.008
v -0.436898 -0.490000 0.436899
v -0.436898 -0.490000 0.312071
v 0.436899 -0.490000 0.312070
v 0.436899 -0.490000 0.436898
v -0.098698 -0.490000 -0.312071
v -0.150403 -0.490000 -0.436899
v 0.436898 -0.490000 -0.436899
v 0.436898 -0.490000 -0.312071
v -0.646718 -0.490000 0.059416
v -0.558452 -0.490000 0.147684
v -0.098698 -0.490000 -0.312071
v -0.150403 -0.490000 -0.436899
v -0.015588 -0.490000 -0.062415
v -0.067294 -0.490000 -0.187243
v 0.436898 -0.490000 -0.187243
v 0.436899 -0.490000 -0.062415
v -0.480336 -0.490000 0.225799
v -0.392068 -0.490000 0.314066
v -0.015588 -0.490000 -0.062415
v -0.067294 -0.490000 -0.187243
v 0.436899 -0.490000 0.062415
v -0.140416 -0.490000 0.062415
v -0.265244 -0.490000 0.187243
v 0.436899 -0.490000 0.187242
v -0.724835 -0.490000 -0.018700
v -0.813101 -0.490000 -0.106966
v -0.106966 -0.490000 -0.813101
v -0.018700 -0.490000 -0.724835
vt 0.000000 0.875000
vt 0.875000 0.875000
vt 0.875000 0.750000
vt -0.000000 0.750000
vt 0.062500 0.500000
vt 0.562500 0.500000
vt 0.562500 0.375000
vt -0.000000 0.375000
vt 0.687500 0.625000
vt 0.687500 0.500000
vt 0.062500 0.500000
vt -0.000000 0.625000
vt 0.062500 0.250000
vt 0.500000 0.250000
vt 0.500000 0.125000
vt -0.000000 0.125000
vt -0.000000 0.250000
vt -0.000000 0.375000
vt 0.500000 0.375000
vt 0.562500 0.250000
vt -0.000000 0.750000
vt 0.562500 0.750000
vt 0.687500 0.625000
vt -0.000000 0.625000
vt 1.000000 0.875000
vt 0.000000 0.875000
vt 0.000000 1.000000
vt 1.000000 1.000000
vn -0.0000 1.0000 0.0000
g WOOD_mesh__WOOD_mesh_.008_WOOD_mesh__WOOD_mesh_.008_None.001
s 1
f 1/1/1 4/2/1 3/3/1 2/4/1
f 5/5/1 8/6/1 7/7/1 6/8/1
f 9/9/1 10/10/1 11/11/1 12/12/1
f 13/13/1 16/14/1 15/15/1 14/16/1
f 17/17/1 18/18/1 19/19/1 20/20/1
f 21/21/1 22/22/1 23/23/1 24/24/1
f 25/25/1 28/26/1 27/27/1 26/28/1
o RAIL_mesh__RAIL_mesh_.008
v 0.246675 -0.480056 -0.494007
v 0.370012 -0.480056 -0.494007
v 0.370012 -0.480056 0.494007
v 0.246675 -0.480056 0.494007
v -0.318925 -0.480056 -0.668665
v -0.231711 -0.480056 -0.755993
v 0.246675 -0.480056 -0.276969
v 0.246675 -0.480056 -0.102313
v -0.370012 -0.480056 0.494007
v -0.370012 -0.480056 -0.494007
v -0.246675 -0.480056 -0.494007
v -0.246675 -0.480056 0.494007
v -0.370012 -0.480056 -0.021190
v -0.667776 -0.480056 -0.319349
v -0.754988 -0.480056 -0.232020
v -0.370012 -0.480056 0.153468
vt 0.125000 1.000000
vt 0.125000 -0.000000
vt -0.000000 -0.000000
vt -0.000000 1.000000
vt 0.250000 0.812500
vt 0.250000 0.125000
vt 0.125000 0.250000
vt 0.125000 0.812500
vt 1.000000 0.000000
vt 0.875000 -0.000000
vt 0.875000 1.000000
vt 1.000000 1.000000
vt 0.750000 0.250000
vt 0.750000 0.625000
vt 0.875000 0.625000
vt 0.875000 0.125000
vn -0.0000 1.0000 0.0000
g RAIL_mesh__RAIL_mesh_.008_RAIL_mesh__RAIL_mesh_.008_None.001
s 1
f 29/29/2 32/30/2 31/31/2 30/32/2
f 33/33/2 36/34/2 35/35/2 34/36/2
f 37/37/2 40/38/2 39/39/2 38/40/2
f 41/41/2 42/42/2 43/43/2 44/44/2
