# Blender v2.93.3 OBJ File: ''
# www.blender.org
o Cube_Cube.006
v 0.050000 0.400000 -0.650000
v 0.050000 0.500000 -0.650000
v 0.050000 0.400000 -0.750000
v 0.050000 0.500000 -0.750000
v 0.150000 0.400000 -0.650000
v 0.150000 0.500000 -0.650000
v 0.150000 0.400000 -0.750000
v 0.150000 0.500000 -0.750000
v -0.250000 0.400000 0.250000
v 0.250000 0.400000 0.250000
v -0.250000 0.400000 -0.897500
v 0.250000 0.400000 -0.897500
v 0.495000 -0.250000 -0.995000
v 0.495000 -0.500000 -0.995000
v 0.495000 -0.250000 0.995000
v 0.495000 -0.500000 0.995000
v -0.495000 -0.250000 -0.995000
v -0.495000 -0.500000 -0.995000
v -0.495000 -0.250000 0.995000
v -0.495000 -0.500000 0.995000
v -0.495000 -0.250000 0.995000
v -0.495000 0.500000 0.995000
v -0.495000 -0.250000 0.245000
v -0.495000 0.500000 0.245000
v 0.495000 -0.250000 0.995000
v 0.495000 0.500000 0.995000
v 0.495000 -0.250000 0.245000
v 0.495000 0.500000 0.245000
v 0.395000 -0.250000 -0.895000
v 0.395000 -0.250000 0.245000
v 0.250000 0.400000 0.250000
v 0.250000 0.400000 -0.900000
v -0.395000 -0.250000 -0.895000
v -0.395000 -0.250000 0.245000
v -0.250000 0.400000 0.250000
v -0.250000 0.400000 -0.900000
vt 0.265625 0.562500
vt 0.234375 0.562500
vt 0.234375 0.531250
vt 0.265625 0.531250
vt 0.234375 0.562500
vt 0.203125 0.562500
vt 0.203125 0.531250
vt 0.234375 0.531250
vt 0.593750 0.296875
vt 0.562500 0.296875
vt 0.562500 0.265625
vt 0.593750 0.265625
vt 0.562500 0.265625
vt 0.562500 0.296875
vt 0.531250 0.296875
vt 0.531250 0.265625
vt 0.531250 0.296875
vt 0.562500 0.296875
vt 0.562500 0.328125
vt 0.531250 0.328125
vt 0.859375 0.312500
vt 0.734375 0.312500
vt 0.734375 0.000000
vt 0.859375 0.000000
vt 0.468750 0.640625
vt 0.531250 0.640625
vt 0.531250 0.906250
vt 0.468750 0.906250
vt 0.937500 0.531250
vt 0.875000 0.531250
vt 0.875000 0.000000
vt 0.937500 0.000000
vt 0.000000 0.000000
vt 0.265625 0.000000
vt 0.265625 0.531250
vt 0.000000 0.531250
vt 1.000000 0.531250
vt 0.937500 0.531250
vt 0.937500 0.000000
vt 1.000000 0.000000
vt 0.531250 0.640625
vt 0.593750 0.640625
vt 0.593750 0.906250
vt 0.531250 0.906250
vt 0.265625 0.640625
vt 0.468750 0.640625
vt 0.468750 0.843750
vt 0.265625 0.843750
vt 0.625000 0.328125
vt 0.812500 0.328125
vt 0.812500 0.593750
vt 0.625000 0.593750
vt 0.812500 0.796875
vt 0.625000 0.796875
vt 0.531250 0.000000
vt 0.734375 0.000000
vt 0.734375 0.265625
vt 0.531250 0.265625
vt 0.000000 0.796875
vt 0.000000 0.531250
vt 0.203125 0.531250
vt 0.203125 0.796875
vt 0.437500 0.328125
vt 0.437500 0.640625
vt 0.265625 0.640625
vt 0.265625 0.328125
vt 0.609375 0.328125
vt 0.609375 0.640625
vt 0.437500 0.640625
vt 0.437500 0.328125
vt 1.000000 0.765625
vt 0.812500 0.812500
vt 0.812500 0.593750
vt 1.000000 0.640625
vt 0.531250 0.000000
vt 0.500000 0.031250
vt 0.296875 0.031250
vt 0.265625 0.000000
vt 0.531250 0.328125
vt 0.500000 0.328125
vt 0.296875 0.328125
vt 0.265625 0.328125
vn -1.0000 0.0000 0.0000
vn 0.0000 0.0000 -1.0000
vn 1.0000 0.0000 0.0000
vn 0.0000 0.0000 1.0000
vn 0.0000 1.0000 0.0000
vn 0.0000 -1.0000 0.0000
vn 0.9760 0.2177 0.0000
vn -0.9760 0.2177 0.0000
vn 0.0000 -0.0077 -1.0000
s off
f 1/1/1 2/2/1 4/3/1 3/4/1
f 3/5/2 4/6/2 8/7/2 7/8/2
f 7/9/3 8/10/3 6/11/3 5/12/3
f 5/13/4 6/14/4 2/15/4 1/16/4
f 8/17/5 4/18/5 2/19/5 6/20/5
f 9/21/5 10/22/5 12/23/5 11/24/5
f 16/25/4 15/26/4 19/27/4 20/28/4
f 20/29/1 19/30/1 17/31/1 18/32/1
f 18/33/6 14/34/6 16/35/6 20/36/6
f 14/37/3 13/38/3 15/39/3 16/40/3
f 18/41/2 17/42/2 13/43/2 14/44/2
f 21/45/1 22/46/1 24/47/1 23/48/1
f 23/49/2 24/50/2 28/51/2 27/52/2
f 27/52/3 28/51/3 26/53/3 25/54/3
f 25/55/4 26/56/4 22/57/4 21/58/4
f 28/59/5 24/60/5 22/61/5 26/62/5
f 32/63/7 31/64/7 30/65/7 29/66/7
f 35/67/8 36/68/8 33/69/8 34/70/8
f 32/71/9 29/72/9 33/73/9 36/74/9
f 17/75/5 33/76/5 29/77/5 13/78/5
f 33/76/5 17/75/5 23/79/5 34/80/5
f 29/77/5 30/81/5 27/82/5 13/78/5
