# Blender v2.93.3 OBJ File: 'untitled.blend'
# www.blender.org
o Cube
v 0.495000 0.000000 -0.495000
v 0.495000 -0.500000 -0.495000
v 0.495000 0.000000 0.495000
v 0.495000 -0.500000 0.495000
v -0.495000 0.000000 -0.495000
v -0.495000 -0.500000 -0.495000
v -0.495000 0.000000 0.495000
v -0.495000 -0.500000 0.495000
v -0.450000 -0.450000 0.450000
v -0.450000 0.000000 0.450000
v -0.450000 -0.450000 -0.450000
v -0.450000 0.000000 -0.450000
v 0.450000 -0.450000 0.450000
v 0.450000 0.000000 0.450000
v 0.450000 -0.450000 -0.450000
v 0.450000 0.000000 -0.450000
vt 0.515625 0.312500
vt 0.691406 0.312500
vt 0.691406 0.656250
vt 0.515625 0.656250
vt 0.343750 0.656250
vt 0.515625 0.656250
vt 0.515625 1.000000
vt 0.343750 1.000000
vt 0.000000 0.000000
vt 0.343750 0.000000
vt 0.343750 0.343750
vt 0.000000 0.343750
vt 0.691406 0.312500
vt 0.863281 0.312500
vt 0.863281 0.656250
vt 0.691406 0.656250
vt 0.343750 0.312500
vt 0.515625 0.312500
vt 0.515625 0.656250
vt 0.343750 0.656250
vt 0.671875 0.968750
vt 0.515625 0.968750
vt 0.515625 0.656250
vt 0.671875 0.656250
vt 0.968750 0.312500
vt 0.812500 0.312500
vt 0.812500 0.000000
vt 0.968750 0.000000
vt 0.828125 0.968750
vt 0.671875 0.968750
vt 0.671875 0.656250
vt 0.828125 0.656250
vt 0.812500 0.312500
vt 0.656250 0.312500
vt 0.656250 0.000000
vt 0.812500 0.000000
vt 0.343750 0.000000
vt 0.656250 0.000000
vt 0.656250 0.312500
vt 0.343750 0.312500
vt 0.343750 0.343750
vt 0.343750 0.687500
vt 0.328125 0.671875
vt 0.328125 0.359375
vt 0.000000 0.343750
vt 0.015625 0.359375
vt 0.000000 0.687500
vt 0.015625 0.671875
vn 0.0000 0.0000 1.0000
vn -1.0000 0.0000 0.0000
vn 0.0000 -1.0000 0.0000
vn 1.0000 0.0000 0.0000
vn 0.0000 0.0000 -1.0000
vn 0.0000 1.0000 0.0000
s off
f 4/1/1 3/2/1 7/3/1 8/4/1
f 8/5/2 7/6/2 5/7/2 6/8/2
f 6/9/3 2/10/3 4/11/3 8/12/3
f 2/13/4 1/14/4 3/15/4 4/16/4
f 6/17/5 5/18/5 1/19/5 2/20/5
f 9/21/2 10/22/2 12/23/2 11/24/2
f 11/25/5 12/26/5 16/27/5 15/28/5
f 15/29/4 16/30/4 14/31/4 13/32/4
f 13/33/1 14/34/1 10/35/1 9/36/1
f 11/37/3 15/38/3 13/39/3 9/40/3
f 5/41/6 7/42/6 10/43/6 12/44/6
f 1/45/6 5/41/6 12/44/6 16/46/6
f 3/47/6 1/45/6 16/46/6 14/48/6
f 7/42/6 3/47/6 14/48/6 10/43/6
