# Blender v2.83.1 OBJ File: 'farlands_straight.blend'
# www.blender.org
o RAIL_mesh_
v -0.375000 0.520060 -0.500000
v -0.250000 0.520060 -0.500000
v -0.250000 -0.479944 0.500000
v -0.375000 -0.479944 0.500000
v 0.250000 0.520060 -0.500000
v 0.375000 0.520060 -0.500000
v 0.375000 -0.479944 0.500000
v 0.250000 -0.479944 0.500000
vt 0.125000 -0.000000
vt 0.125000 1.000000
vt 0.250000 1.000000
vt 0.250000 0.000000
vt 0.750000 -0.000000
vt 0.750000 1.000000
vt 0.875000 1.000000
vt 0.875000 0.000000
vn 0.0000 0.7071 0.7071
g RAIL_mesh__RAIL_mesh__None
s 1
f 1/1/1 4/2/1 3/3/1 2/4/1
f 5/5/1 8/6/1 7/7/1 6/8/1
o WOOD_mesh_
v -0.437500 0.430000 -0.437500
v 0.437500 0.430000 -0.437500
v 0.437500 0.310000 -0.312500
v -0.437500 0.310000 -0.312500
v -0.437500 0.180000 -0.187500
v 0.437500 0.180000 -0.187500
v 0.437500 0.060000 -0.062500
v -0.437500 0.060000 -0.062500
v -0.437500 -0.080000 0.062501
v 0.437500 -0.080000 0.062501
v 0.437500 -0.200000 0.187500
v -0.437500 -0.200000 0.187500
v -0.437500 -0.330000 0.312500
v 0.437500 -0.330000 0.312500
v 0.437500 -0.440000 0.437500
v -0.437500 -0.440000 0.437500
vt 0.062500 0.062500
vt 0.062500 0.187500
vt 0.937500 0.187500
vt 0.937500 0.062500
vt 0.062500 0.312500
vt 0.062500 0.437500
vt 0.937500 0.437500
vt 0.937500 0.312500
vt 0.062500 0.562500
vt 0.062500 0.687500
vt 0.937500 0.687500
vt 0.937500 0.562500
vt 0.062500 0.812500
vt 0.062500 0.937500
vt 0.937500 0.937500
vt 0.937500 0.812500
vn 0.0000 0.7214 0.6925
vn 0.0000 0.7507 0.6606
g WOOD_mesh__WOOD_mesh__None
s 1
f 9/9/2 12/10/2 11/11/2 10/12/2
f 13/13/2 16/14/2 15/15/2 14/16/2
f 17/17/2 20/18/2 19/19/2 18/20/2
f 21/21/3 24/22/3 23/23/3 22/24/3
