# Blender v2.78 (sub 0) OBJ File: ''
# www.blender.org
mtllib switch_right_45.mtl
o WOOD_mesh__WOOD_mesh_.009
v 0.095314 0.000000 -0.723853
v 0.016746 0.000000 -0.645286
v 0.645286 0.000000 -0.016746
v 0.723853 0.000000 -0.095314
v 0.166667 0.000000 -0.060102
v 0.055556 0.000000 -0.014078
v 0.349087 0.000000 0.279453
v 0.427654 0.000000 0.200886
v 0.055556 0.000000 -0.310277
v 0.166667 0.000000 -0.199166
v 0.166667 0.000000 -0.060102
v 0.055556 0.000000 -0.014078
v -0.052786 0.000000 -0.575754
v -0.131353 0.000000 -0.497186
v 0.497186 0.000000 0.131353
v 0.575754 0.000000 0.052786
v -0.055556 0.000000 0.013875
v -0.166667 0.000000 0.059899
v 0.200987 0.000000 0.427553
v 0.279554 0.000000 0.348985
v -0.166667 0.000000 -0.388889
v -0.055556 0.000000 -0.388889
v -0.055556 0.000000 0.013875
v -0.166667 0.000000 0.059899
v -0.497085 0.000000 -0.131455
v -0.575652 0.000000 -0.052887
v 0.052887 0.000000 0.575652
v 0.131455 0.000000 0.497085
v -0.277778 0.000000 -0.388889
v -0.388889 0.000000 -0.388889
v -0.388889 0.000000 -0.023259
v -0.277778 0.000000 0.087852
v -0.645185 0.000000 0.016645
v -0.723752 0.000000 0.095212
v -0.095212 0.000000 0.723752
v -0.016645 0.000000 0.645185
vn 0.0000 1.0000 0.0000
vn 0.0000 -1.0000 0.0000
usemtl None
s off
f 1//1 2//1 3//1 4//1
f 5//1 6//1 7//1 8//1
f 9//2 10//2 11//2 12//2
f 13//1 14//1 15//1 16//1
f 17//1 18//1 19//1 20//1
f 21//2 22//2 23//2 24//2
f 25//1 26//1 27//1 28//1
f 29//1 30//1 31//1 32//1
f 33//1 34//1 35//1 36//1
o RAIL_mesh__RAIL_mesh_.009
v -0.287310 0.000056 0.601580
v -0.208742 0.000056 0.680147
v 0.680147 0.000056 -0.208742
v 0.601580 0.000056 -0.287310
v -0.444445 0.000056 0.222222
v -0.444445 0.000056 0.333333
v -0.019064 0.000056 0.333333
v 0.092048 0.000056 0.222222
v 0.208742 0.000056 -0.680147
v -0.680147 0.000056 0.208742
v -0.601580 0.000056 0.287310
v 0.287310 0.000056 -0.601580
v -0.444445 0.000056 -0.333333
v -0.444445 0.000056 -0.222222
v -0.249182 0.000056 -0.222222
v -0.138071 0.000056 -0.333333
vn 0.0000 1.0000 -0.0000
usemtl None
s off
f 37//3 38//3 39//3 40//3
f 41//3 42//3 43//3 44//3
f 45//3 46//3 47//3 48//3
f 49//3 50//3 51//3 52//3
